<?xml version="1.0" encoding="UTF-8" standalone="no"?>
<svg
   width="96"
   height="96"
   viewBox="0 0 96 95.999997"
   version="1.1"
   id="svg1"
   xmlns="http://www.w3.org/2000/svg"
   xmlns:svg="http://www.w3.org/2000/svg">
  <defs
     id="defs1" />
  <rect
     style="fill:#171819;stroke-width:0;stroke-linecap:round;fill-opacity:1"
     id="rect1"
     width="96"
     height="96"
     x="0"
     y="0"
     ry="6.0057211" />
  <g
     id="Group_4"
     data-name="Group 4"
     transform="matrix(1.2353728,0,0,1.2353728,-0.42743463,-31.869796)">
    <g
       id="Group_3"
       data-name="Group 3"
       transform="translate(5.808,35.281)">
      <g
         id="Group_2"
         data-name="Group 2">
        <path
           id="Path_33"
           data-name="Path 33"
           d="M 26.645,75.179 A 19.12,19.12 0 1 1 59.283,61.871 h 0.018 a 26.743,26.743 0 1 0 -16.445,24.848 16.1,16.1 0 0 1 -2.4,-5.943 19.062,19.062 0 0 1 -13.811,-5.597 z"
           transform="translate(-5.808,-35.281)"
           fill="#f4f4f4" />
        <path
           id="Path_34"
           data-name="Path 34"
           d="m 291.482,228.539 a 26.766,26.766 0 0 1 -16.445,24.844 16.2,16.2 0 1 0 16.445,-24.844 z"
           transform="translate(-237.99,-201.946)"
           fill="#f4f4f4" />
        <path
           id="Path_35"
           data-name="Path 35"
           d="m 255.613,242.817 a 16.291,16.291 0 0 0 0.273,2.97 19.116,19.116 0 0 0 18.827,-18.9 16.207,16.207 0 0 0 -19.1,15.934 z"
           transform="translate(-221.239,-200.292)"
           fill="#f4f4f4" />
      </g>
    </g>
  </g>
</svg>
